<?xml version="1.0" encoding="UTF-8"?>
<!DOCTYPE svg PUBLIC "-//W3C//DTD SVG 1.1//EN" "http://www.w3.org/Graphics/SVG/1.1/DTD/svg11.dtd">
<!-- Creator: CorelDRAW X7 -->
<svg xmlns="http://www.w3.org/2000/svg" xml:space="preserve" width="166.642mm" height="119.63mm" version="1.1" style="shape-rendering:geometricPrecision; text-rendering:geometricPrecision; image-rendering:optimizeQuality; fill-rule:evenodd; clip-rule:evenodd"
viewBox="0 0 13823 9923"
 xmlns:xlink="http://www.w3.org/1999/xlink">
 <defs>
  <style type="text/css">
   <![CDATA[
    .str2 {stroke:#7D1A07;stroke-width:117.048}
    .str0 {stroke:#F2E29B;stroke-width:21.9397}
    .str1 {stroke:#7E2726;stroke-width:146.303}
    .fil10 {fill:none}
    .fil2 {fill:#FFF212}
    .fil8 {fill:#F3DF99}
    .fil3 {fill:#FDB92E}
    .fil0 {fill:#F58634}
    .fil1 {fill:#ED3237}
    .fil5 {fill:#7E2726}
    .fil7 {fill:#F9F1E3}
    .fil4 {fill:#373435;fill-rule:nonzero}
    .fil11 {fill:#F8E9A3;fill-rule:nonzero}
    .fil6 {fill:#F3DF99;fill-rule:nonzero}
    .fil12 {fill:#7E2726;fill-rule:nonzero}
    .fil9 {fill:url(#id1)}
   ]]>
  </style>
    <clipPath id="id0">
     <rect x="11287" y="3276" width="2443" height="1358"/>
    </clipPath>
  <linearGradient id="id1" gradientUnits="userSpaceOnUse" x1="838.479" y1="5328.45" x2="3292.67" y2="5328.45">
   <stop offset="0" style="stop-opacity:1; stop-color:#D2AE6D"/>
   <stop offset="0.239216" style="stop-opacity:1; stop-color:#FFF8AF"/>
   <stop offset="0.478431" style="stop-opacity:1; stop-color:#D2AE6D"/>
   <stop offset="0.690196" style="stop-opacity:1; stop-color:#FFF8AF"/>
   <stop offset="1" style="stop-opacity:1; stop-color:#D2AE6D"/>
  </linearGradient>
 </defs>
 <g id="Layer_x0020_1">
  <metadata id="CorelCorpID_0Corel-Layer"/>
  <g id="_2423540178976">
   <path class="fil0" d="M5046 1457l-1429 681 772 5 844 0c-13,-247 -79,-480 -187,-686z"/>
   <path class="fil1" d="M2888 574c-617,296 -977,920 -978,1569l204 0c-2,-362 121,-726 377,-1018 549,-627 1494,-683 2110,-125l-984 1124 -16 16 17 1 13 -5 1530 -735c-403,-866 -1421,-1237 -2273,-827z"/>
   <path class="fil0" d="M2587 1771c171,-584 775,-917 1349,-744l-321 1099 986 -1126c-616,-558 -1561,-502 -2110,125 -256,292 -379,656 -377,1018l431 0c-7,-122 6,-248 42,-372z"/>
   <path class="fil2" d="M3617 1356c-427,0 -774,348 -776,787l1548 0c2,-439 -344,-787 -772,-787z"/>
   <path class="fil3" d="M3617 1356c75,0 146,11 214,31l105 -360c-574,-173 -1178,160 -1349,744 -36,124 -49,250 -42,372l296 0c3,-438 350,-787 776,-787z"/>
   <path class="fil4" d="M510 2793l0 129 361 0 0 72c-35,0 -70,6 -104,19 -34,12 -64,30 -91,53 -26,24 -48,53 -64,88 -17,35 -25,75 -25,120 0,48 9,90 27,127 18,36 41,67 69,91 29,25 60,43 95,56 35,12 70,19 104,19 19,0 36,-2 51,-5 15,-2 34,-6 56,-12l66 157 120 -57 -77 -149c24,-18 41,-40 53,-66 11,-26 17,-53 17,-81 -2,-22 -7,-42 -15,-60 -8,-18 -18,-33 -30,-47 -12,-13 -26,-23 -41,-30 -15,-7 -30,-11 -45,-11 -34,0 -63,12 -87,35 -25,23 -38,54 -41,93 0,19 2,36 7,53 5,16 11,29 17,37 -6,1 -12,2 -17,2l-11 0c-16,0 -31,-4 -44,-12 -14,-9 -25,-20 -34,-34 -9,-14 -16,-30 -20,-47 -5,-18 -7,-36 -7,-54 0,-31 5,-57 17,-78 11,-21 25,-39 42,-52 17,-13 36,-22 55,-28 19,-6 37,-9 53,-9 22,0 42,2 61,7 18,5 35,11 50,17l0 -214 135 0 0 -129 -703 0zm506 40l93 -68 -92 -321 -174 83 173 306zm-254 -324l-151 128 262 218 89 -81 -200 -265zm749 285l-47 0c-27,-3 -50,-13 -67,-29 -18,-17 -26,-38 -26,-63 0,-19 3,-35 10,-47 6,-12 15,-22 27,-30 11,-7 24,-12 38,-15 14,-3 28,-4 42,-4 21,0 45,3 72,9 27,6 55,16 84,29 29,14 58,32 87,55 29,23 56,51 81,85l87 -70c-39,-49 -79,-91 -120,-125 -41,-33 -82,-61 -124,-82 -41,-22 -81,-37 -120,-46 -40,-9 -76,-14 -110,-14 -47,0 -86,6 -117,17 -31,12 -57,27 -76,47 -19,19 -33,42 -41,67 -8,25 -12,51 -12,77 0,25 4,50 11,74 8,25 20,46 36,65l-87 0 0 128 81 0 0 690 178 0 0 -690 113 0 0 -128zm370 295l-233 0c-8,0 -21,2 -38,5 -18,4 -36,13 -54,25 -18,13 -35,31 -49,55 -14,24 -21,57 -21,98 0,22 4,42 12,61 8,19 19,36 32,50 14,15 30,25 47,33 17,8 34,11 52,11 37,0 69,-12 95,-37 27,-25 40,-58 40,-98 0,-16 -1,-29 -3,-40 -3,-11 -8,-22 -16,-34l136 0 0 -129zm70 -296l-521 0 0 129 521 0 0 -129zm-170 129l74 0 0 690 210 0 0 -690 81 0 0 -129 -365 0 0 129zm280 0l432 0 0 476c-11,8 -19,12 -25,15 -6,2 -11,3 -15,3 -19,-1 -35,-7 -48,-19 -12,-11 -23,-25 -30,-42 -8,-16 -14,-34 -17,-54 -4,-20 -6,-40 -6,-59 0,-17 2,-36 6,-55 3,-20 9,-38 16,-53 7,-16 16,-29 27,-40 11,-10 23,-15 36,-15 9,0 21,6 36,18l0 -102c-11,-12 -25,-20 -42,-23 -18,-4 -35,-6 -51,-6 -30,0 -59,6 -88,18 -28,12 -53,30 -76,55 -22,24 -40,55 -54,91 -13,37 -20,79 -20,127 0,42 6,80 18,116 11,35 28,66 49,92 22,26 46,47 75,62 28,16 59,23 92,23 26,0 49,-3 70,-10 21,-6 36,-13 47,-21l0 93 210 0 0 -487c6,-13 14,-23 23,-28 9,-6 18,-8 28,-8 14,0 27,5 38,16 12,11 21,25 29,41 7,16 13,34 17,54 5,20 7,38 7,56 0,50 -8,89 -24,116 -16,27 -38,41 -66,41 -4,0 -9,-1 -15,-2 -5,-1 -10,-3 -14,-5l0 125c9,4 24,8 45,10 21,3 39,4 55,4 31,0 59,-6 86,-20 27,-14 51,-33 71,-57 21,-25 37,-54 49,-89 11,-34 17,-72 17,-114 0,-49 -6,-92 -20,-130 -13,-37 -31,-69 -53,-94 -22,-25 -48,-44 -76,-56 -29,-13 -60,-19 -92,-19 -24,0 -43,3 -58,10 -16,6 -31,13 -47,19l0 -73 400 0 0 -129 -1042 0 0 129zm1975 109l-467 0 0 131c55,-4 97,9 124,38 27,29 40,70 40,121 0,10 -1,23 -4,39 -3,17 -8,33 -16,48 -7,15 -19,28 -33,40 -15,11 -33,17 -56,17 -27,-1 -49,-8 -66,-20 -17,-13 -31,-29 -43,-49 -12,-19 -22,-41 -30,-64 -9,-24 -17,-47 -26,-69 -8,-22 -18,-42 -29,-61 -11,-18 -24,-31 -41,-40l-127 121c19,12 35,30 48,51 13,22 26,46 39,71 13,25 27,50 42,77 15,26 34,50 58,71 24,22 53,40 87,55 34,14 76,22 128,24 38,1 75,-5 110,-20 34,-14 64,-34 90,-59 25,-26 45,-56 60,-91 15,-35 22,-73 21,-115 -1,-28 -5,-53 -13,-74 -8,-22 -17,-40 -27,-54 -10,-15 -21,-27 -31,-35 -11,-9 -19,-16 -25,-22l187 0 0 -131zm-29 -238l-614 0 0 129 614 0 0 -129zm-101 129l74 0 0 690 210 0 0 -690 81 0 0 -129 -365 0 0 129zm270 0l74 0 0 690 210 0 0 -690 81 0 0 -129 -365 0 0 129zm886 -129l-603 0 0 129 185 0c14,1 27,7 40,18 13,12 24,27 33,46 10,18 17,40 23,64 6,25 9,51 10,78 0,4 0,11 -1,21 0,10 -1,21 -3,33 -1,12 -3,24 -5,36 -1,12 -4,22 -8,29 -16,-33 -34,-55 -53,-65 -19,-10 -34,-15 -45,-15 -16,0 -31,4 -46,11 -14,7 -26,17 -38,30 -11,13 -20,29 -26,47 -6,18 -9,38 -8,61 1,29 7,53 19,75 12,21 27,38 44,52 18,14 38,24 60,30 22,7 44,10 66,9 35,-3 68,-11 99,-27 30,-15 57,-36 81,-62 23,-26 41,-58 54,-95 14,-37 20,-78 20,-124 0,-54 -10,-103 -31,-147 -21,-45 -45,-80 -73,-105l206 0 0 -129zm-93 129l73 0 0 690 211 0 0 -690 81 0 0 -129 -365 0 0 129zm921 -129l-634 0 0 129 257 0c9,6 19,18 29,33 11,16 16,40 17,72 1,15 -1,30 -5,44 -5,14 -11,26 -19,37 -8,11 -18,20 -30,26 -11,6 -23,9 -35,9 -20,-1 -35,-5 -45,-10 -11,-6 -23,-16 -37,-31l-110 159c5,8 14,25 28,50 14,24 32,52 53,83 22,31 47,63 76,94 28,32 59,59 94,83 35,23 72,40 111,50 40,11 82,10 127,-4l59 -186c-71,5 -135,-6 -191,-35 -56,-28 -100,-67 -132,-116 25,3 54,3 85,-2 31,-5 60,-16 88,-32 27,-17 51,-41 70,-72 18,-32 28,-73 28,-125 0,-18 -2,-39 -6,-61 -4,-22 -11,-44 -21,-66l143 0 0 -129zm519 0l-621 0 0 129 67 0 0 245c0,33 4,65 13,95 8,31 22,58 40,81 19,24 43,42 73,57 31,14 68,21 113,21 77,0 136,-23 178,-70 41,-46 61,-107 61,-184l0 -245 76 0 0 -129zm-328 478c-5,-7 -9,-16 -11,-28 -2,-11 -3,-24 -3,-38l0 -41 0 -242 73 0 0 247 0 36c0,13 -1,25 -2,37 -2,11 -6,21 -11,28 -5,8 -14,12 -25,12 -10,0 -17,-4 -21,-11zm220 -349l74 0 0 690 210 0 0 -690 81 0 0 -129 -365 0 0 129z"/>
   <polygon class="fil5" points="426,8172 12723,8172 12723,9433 426,9433 "/>
   <path class="fil6" d="M3101 8482l130 0c-45,74 -77,142 -97,205 -16,54 -25,111 -25,171 0,117 41,238 122,361l-130 0c-66,-70 -112,-134 -139,-191 -26,-57 -40,-116 -40,-179 0,-64 14,-126 42,-184 28,-59 74,-120 137,-183zm83 9l242 0 169 405 166 -405 235 0 -278 562 -251 0 -283 -562zm796 0l620 0 0 120 -387 0 0 90 358 0 0 114 -358 0 0 111 398 0 0 127 -631 0 0 -562zm612 297l302 0 0 121 -302 0 0 -121zm687 62l0 -117 358 0 0 239c-69,35 -129,59 -181,72 -53,13 -116,19 -188,19 -89,0 -161,-12 -217,-34 -56,-23 -100,-57 -130,-102 -31,-45 -47,-97 -47,-155 0,-61 17,-114 51,-160 34,-45 83,-80 148,-103 51,-18 119,-27 205,-27 82,0 144,5 185,16 41,12 75,29 103,53 27,24 47,54 61,90l-223 30c-10,-21 -25,-38 -47,-49 -22,-11 -50,-17 -84,-17 -51,0 -91,13 -121,40 -30,26 -45,68 -45,125 0,61 15,104 45,130 31,26 73,39 128,39 25,0 50,-2 74,-8 23,-6 50,-15 80,-28l0 -53 -155 0zm407 203l0 -562 386 0c72,0 126,5 164,14 38,9 68,26 91,51 24,25 35,56 35,91 0,32 -9,59 -27,81 -17,23 -42,41 -73,55 -19,9 -47,17 -81,23 28,7 48,13 60,20 9,5 21,15 37,30 16,15 27,27 32,35l113 162 -262 0 -123 -171c-16,-22 -30,-37 -42,-43 -17,-9 -36,-13 -57,-13l-20 0 0 227 -233 0zm233 -333l97 0c11,0 31,-3 62,-8 15,-2 28,-8 37,-18 10,-9 15,-20 15,-33 0,-18 -8,-32 -23,-41 -15,-10 -44,-15 -87,-15l-101 0 0 115zm487 -229l619 0 0 120 -387 0 0 90 359 0 0 114 -359 0 0 111 399 0 0 127 -631 0 0 -562zm759 -9l-130 0c45,74 77,142 97,205 16,54 25,111 25,171 0,117 -41,238 -122,361l130 0c66,-70 112,-134 139,-191 27,-57 40,-116 40,-179 0,-64 -14,-126 -42,-184 -28,-59 -74,-120 -137,-183zm1237 571l-624 0c7,-46 29,-89 65,-130 36,-41 104,-89 204,-145 61,-34 100,-59 117,-77 17,-18 26,-35 26,-50 0,-18 -9,-32 -25,-44 -17,-13 -39,-19 -64,-19 -27,0 -49,7 -65,19 -17,13 -29,35 -34,67l-209 -13c9,-44 24,-78 45,-103 22,-25 53,-43 92,-57 40,-13 95,-19 165,-19 73,0 130,6 171,18 41,13 73,32 96,58 23,26 35,55 35,87 0,35 -14,67 -40,99 -27,31 -75,65 -146,102 -42,22 -70,37 -84,46 -14,9 -31,20 -50,34l325 0 0 127zm-2 -283c0,-107 26,-182 77,-224 51,-43 130,-64 234,-64 51,0 92,4 124,14 33,9 59,21 80,36 20,15 36,31 48,47 12,17 21,36 28,58 14,42 21,85 21,131 0,102 -23,177 -69,224 -46,47 -125,71 -237,71 -63,0 -114,-8 -153,-23 -39,-15 -71,-37 -95,-66 -18,-21 -33,-49 -43,-85 -10,-36 -15,-76 -15,-119zm206 0c0,72 9,121 26,147 17,26 41,39 73,39 21,0 39,-6 55,-17 16,-11 27,-28 34,-52 8,-24 11,-62 11,-113 0,-74 -8,-124 -25,-150 -17,-26 -42,-39 -76,-39 -34,0 -59,13 -75,40 -15,26 -23,74 -23,145zm1010 283l-624 0c7,-46 29,-89 65,-130 36,-41 104,-89 204,-145 61,-34 100,-59 117,-77 17,-18 26,-35 26,-50 0,-18 -9,-32 -25,-44 -17,-13 -39,-19 -64,-19 -27,0 -49,7 -66,19 -16,13 -28,35 -33,67l-209 -13c9,-44 24,-78 45,-103 22,-25 53,-43 92,-57 40,-13 95,-19 165,-19 73,0 130,6 171,18 41,13 73,32 96,58 23,26 35,55 35,87 0,35 -14,67 -40,99 -27,31 -76,65 -146,102 -42,22 -70,37 -84,46 -14,9 -31,20 -50,34l325 0 0 127zm200 -399l-196 -27c16,-47 47,-83 94,-108 46,-25 112,-37 197,-37 97,0 168,13 211,41 44,27 66,61 66,103 0,24 -9,46 -27,66 -18,19 -44,36 -80,51 29,6 51,12 67,19 25,12 44,27 58,46 13,18 20,41 20,67 0,33 -11,64 -34,94 -23,30 -56,53 -98,69 -43,17 -100,25 -170,25 -68,0 -121,-6 -160,-18 -40,-12 -72,-30 -98,-53 -25,-23 -44,-52 -58,-87l208 -21c8,31 21,53 38,65 17,13 39,19 66,19 27,0 51,-8 69,-23 19,-16 28,-36 28,-62 0,-26 -9,-46 -27,-60 -17,-15 -42,-22 -72,-22 -16,0 -39,3 -67,9l11 -111c11,1 20,2 26,2 27,0 50,-7 68,-20 17,-13 27,-28 27,-46 0,-17 -7,-31 -21,-41 -13,-10 -32,-15 -55,-15 -25,0 -45,5 -60,17 -15,11 -25,30 -31,58z"/>
   <polygon class="fil7" points="394,3955 12732,3955 12732,6590 394,6590 "/>
   <path class="fil5 str0" d="M725 4090l11682 0c142,0 258,116 258,258l0 1983c0,142 -116,259 -258,259l-11682 0c-142,0 -258,-117 -258,-259l0 -1983c0,-142 116,-258 258,-258z"/>
   <path class="fil8" d="M3936 5402l-169 -680 150 0 111 542 102 -542 148 0 -158 680 -184 0zm428 0l0 -680 386 0 0 113 -247 0 0 157 230 0 0 108 -230 0 0 187 253 0 0 115 -392 0zm630 -393l81 0c41,0 69,-7 84,-22 16,-14 24,-41 24,-79 0,-34 -9,-57 -26,-71 -17,-13 -48,-20 -94,-20l-69 0 0 192zm-135 393l0 -680 251 0c76,0 131,14 164,42 33,27 50,73 50,136 0,44 -9,79 -27,104 -18,26 -44,41 -79,45 66,16 101,67 104,152 0,4 0,7 0,9l4 90c1,26 5,46 11,62 6,15 15,28 27,40l-166 0c-4,-12 -7,-25 -9,-41 -2,-15 -3,-37 -4,-65l-2 -71 0 -19c0,-39 -9,-66 -28,-81 -18,-14 -56,-22 -113,-22l-48 0 0 299 -135 0zm684 0l0 -568 -161 0 0 -112 462 0 0 112 -161 0 0 568 -140 0zm375 0l0 -680 386 0 0 113 -247 0 0 157 230 0 0 108 -230 0 0 187 253 0 0 115 -392 0zm440 0l184 -347 -175 -333 157 0 100 214 102 -214 157 0 -182 333 187 347 -159 0 -109 -227 -110 227 -152 0zm852 0l0 -680 386 0 0 113 -247 0 0 157 230 0 0 108 -230 0 0 187 253 0 0 115 -392 0zm632 -101l62 0c32,0 54,-2 66,-6 13,-4 23,-11 31,-21 13,-18 22,-42 28,-73 5,-30 8,-80 8,-147 0,-66 -3,-114 -10,-144 -6,-30 -17,-53 -33,-68 -8,-8 -19,-13 -32,-16 -12,-3 -33,-5 -60,-5l-60 0 0 480zm-137 101l0 -680 225 0c46,0 82,3 110,10 27,8 49,19 66,35 27,23 45,53 56,88 11,35 17,90 17,165 0,97 -4,165 -11,205 -8,40 -21,73 -39,102 -17,27 -41,47 -71,58 -31,11 -85,17 -160,17l-193 0zm588 -680l139 0 0 458c0,53 8,88 22,107 14,18 39,28 75,28 36,0 61,-10 75,-29 13,-18 20,-54 20,-108l0 -456 138 0 0 469c0,46 -3,79 -8,100 -6,21 -15,39 -29,55 -20,24 -47,42 -80,54 -33,12 -72,18 -118,18 -86,0 -146,-17 -181,-51 -36,-33 -53,-92 -53,-176l0 -469zm895 437l136 0c0,3 0,8 1,13 0,6 0,11 0,14 0,78 -18,137 -55,175 -36,38 -92,57 -168,57 -36,0 -66,-4 -92,-13 -26,-8 -48,-21 -66,-39 -26,-23 -44,-56 -54,-97 -10,-41 -16,-113 -16,-215 0,-70 4,-126 10,-167 6,-42 15,-72 29,-93 20,-31 45,-53 75,-67 30,-14 68,-21 114,-21 77,0 132,18 167,53 34,36 52,94 52,173l-136 0 0 -16c0,-37 -6,-64 -20,-82 -13,-18 -33,-27 -60,-27 -33,0 -56,12 -68,37 -13,25 -19,95 -19,208 0,122 6,197 18,223 12,27 35,40 68,40 31,0 53,-11 66,-31 12,-21 18,-59 18,-115l0 -10zm395 -30l119 0 -60 -285 -59 285zm-201 273l169 -680 188 0 171 680 -151 0 -37 -171 -161 0 -36 171 -143 0zm654 0l0 -568 -161 0 0 -112 462 0 0 112 -161 0 0 568 -140 0zm374 0l0 -680 140 0 0 680 -140 0zm396 -340c0,112 7,182 22,211 14,29 41,44 80,44 39,0 65,-15 79,-43 14,-28 21,-99 21,-212 0,-113 -7,-184 -21,-213 -15,-29 -41,-43 -80,-43 -38,0 -65,14 -79,43 -15,29 -22,100 -22,213zm-143 0c0,-72 4,-130 12,-173 7,-43 19,-76 35,-97 21,-31 47,-53 78,-66 30,-14 70,-20 119,-20 50,0 89,6 120,20 30,13 56,35 78,66 16,22 28,55 35,98 7,43 11,100 11,172 0,71 -4,128 -11,172 -8,43 -19,75 -35,98 -22,31 -48,53 -78,66 -31,13 -70,20 -120,20 -49,0 -89,-7 -119,-20 -31,-13 -57,-35 -78,-66 -16,-22 -28,-54 -35,-98 -8,-43 -12,-100 -12,-172zm602 340l0 -680 144 0 195 475 -3 -475 132 0 0 680 -143 0 -197 -477 4 477 -132 0zm582 -239l140 0 0 44c0,41 5,70 17,85 11,15 31,23 60,23 29,0 52,-7 67,-21 16,-13 24,-33 24,-60 0,-20 -6,-37 -17,-52 -10,-14 -34,-33 -69,-56l-72 -46c-62,-39 -101,-71 -118,-96 -17,-26 -25,-57 -25,-96 0,-57 18,-101 56,-134 37,-32 89,-48 155,-48 69,0 123,17 160,51 37,35 55,84 55,149 0,6 0,11 0,14 0,4 0,7 -1,10l-132 0 0 -18c0,-37 -7,-64 -20,-80 -14,-15 -36,-23 -66,-23 -23,0 -40,6 -53,18 -13,11 -19,28 -19,49 0,29 28,61 86,95 1,1 1,1 1,1l78 47c54,33 92,64 111,94 20,29 29,66 29,112 0,61 -19,109 -58,142 -39,34 -95,51 -167,51 -76,0 -132,-18 -169,-53 -37,-35 -55,-89 -55,-162 0,-7 0,-20 2,-37l0 -3z"/>
   <path class="fil9" d="M987 4339l2157 0c82,0 149,64 149,143l0 1693c0,79 -67,143 -149,143l-2157 0c-82,0 -149,-64 -149,-143l0 -1693c0,-79 67,-143 149,-143zm980 966c-84,-139 -179,-256 -321,-363 33,0 101,-32 134,-32 131,136 235,249 287,402 51,-153 145,-304 273,-453 31,0 92,8 123,8 -138,128 -244,279 -314,449 -12,30 -70,173 -79,173 -18,0 -84,-152 -103,-184zm41 477c-22,0 -29,-13 -36,-27l189 0c-4,16 -17,27 -38,27l-115 0zm178 -46c15,-1 37,-11 58,-12 22,-2 48,0 66,2 34,4 100,3 136,3 88,0 178,7 269,7 40,0 92,5 133,5 42,0 95,-1 136,2 42,3 89,5 134,5 36,0 104,-2 113,21l-1045 -29 0 -4zm-1286 33c9,-23 80,-21 116,-21 38,0 99,-1 134,-5 35,-4 99,-2 135,-2 41,0 93,-5 134,-5 90,0 180,-7 269,-7 47,0 243,-17 254,12l-1042 28zm1042 -14l15 0c2,18 21,38 38,38l144 0c20,0 36,-22 40,-38l1089 30 0 -3 5 0c0,-18 -25,-24 -38,-31 -13,-7 -32,-16 -43,-24 -11,-7 -36,-71 -44,-87 -81,0 -140,-2 -209,-10 -28,-3 -68,-11 -91,-19 -17,-5 -68,-24 -83,-24 -3,-10 -110,-50 -128,-58 -38,-16 -103,-26 -159,-26 -89,0 -191,40 -247,73 -48,28 -51,36 -87,72 -12,12 -62,76 -66,90l-20 0c-3,0 -64,-80 -71,-90 -24,-31 -53,-53 -88,-72 -63,-35 -157,-73 -254,-73 -136,0 -206,57 -308,90 -122,40 -191,47 -354,47 -7,14 -36,81 -44,87 -12,10 -81,39 -81,50 0,3 2,1 5,8l1079 -30zm144 -53c13,-9 24,-32 36,-45 13,-14 23,-30 37,-43 30,-28 54,-51 86,-77 64,-53 129,-81 211,-115 38,-16 88,-24 131,-34 44,-11 85,-23 133,-32 44,-8 89,-19 138,-27 38,-6 102,-21 144,-21 -4,-9 -105,-67 -122,-76 -21,-11 -40,-25 -62,-37 -30,-16 -28,-28 -71,-20 -58,12 -112,19 -167,34 -69,18 -84,33 -138,62 -103,57 -133,107 -206,188 -37,41 -137,187 -150,243zm-952 -394c37,0 111,15 145,21 47,9 93,19 138,27 45,9 89,21 133,31 46,12 86,21 130,35 83,28 146,70 210,116 33,23 57,50 86,77 12,12 28,29 38,42 9,12 27,41 36,48 -16,-67 -102,-197 -141,-249 -43,-56 -138,-166 -203,-193 -46,-20 -96,-38 -147,-53 -52,-15 -110,-23 -168,-34 -48,-10 -39,0 -72,18 -22,12 -41,23 -62,36 -18,12 -119,67 -123,78zm975 166c-8,21 -15,39 -22,62 -17,54 -14,79 -14,147 12,-16 23,-90 38,-96 0,-31 84,-170 102,-200 37,-61 83,-126 126,-180 23,-28 43,-58 67,-86 23,-26 49,-56 71,-83 17,-23 146,-156 147,-160l-143 0c-13,0 -95,96 -107,112 -34,42 -64,81 -94,127 -29,47 -51,89 -78,139 -13,25 -23,48 -37,73 -24,47 -39,96 -56,145zm133 82c11,-3 74,-30 94,-38 22,-9 80,-22 110,-22l83 0c98,0 200,66 277,93 46,17 97,23 152,32 26,5 161,16 170,4 -9,-2 -85,-46 -99,-54 -21,-13 -78,-50 -96,-57 -9,-4 -52,-10 -65,-14 -21,-5 -40,-10 -60,-17 -38,-13 -76,-28 -116,-40 -46,-14 -77,-17 -130,-25 -47,-7 -89,5 -126,23 -50,25 -167,76 -194,115zm-139 79c9,-9 21,-37 29,-50 9,-16 21,-34 32,-49 11,-15 22,-29 33,-45 10,-13 24,-32 35,-45 56,-64 90,-110 165,-158 68,-44 129,-78 206,-115 37,-18 72,-35 109,-52 20,-10 98,-44 116,-48l1 -3 -202 -67c-53,27 -135,77 -174,115 -24,22 -53,44 -78,68 -12,12 -26,23 -35,36 -10,15 -19,28 -30,43 -20,29 -40,55 -60,84 -20,30 -36,60 -55,90 -20,31 -89,159 -92,196zm-1099 -7c3,1 2,2 7,2 131,0 221,-13 319,-43 84,-26 164,-91 272,-91l84 0c28,0 87,13 110,22 12,5 91,37 93,38 -23,-34 -147,-94 -194,-115 -33,-15 -79,-31 -124,-24 -53,9 -85,11 -132,26 -39,12 -76,25 -115,39 -20,8 -38,12 -59,18 -18,5 -52,8 -67,13 -7,3 -194,115 -194,115zm372 -625c3,10 181,124 204,141 18,13 32,25 49,38 18,13 35,21 51,35 26,24 66,57 95,78 33,24 58,57 85,87 13,15 28,30 40,46 10,14 24,36 37,49 19,20 52,77 68,103 10,16 19,38 29,57 8,16 18,46 27,58 0,-39 4,-87 -4,-122 -12,-50 -30,-103 -51,-150 -7,-16 -17,-33 -25,-48 -18,-34 -36,-61 -55,-92 -41,-64 -82,-109 -130,-164 -38,-43 -107,-107 -155,-141 -25,-18 -16,-15 -55,-8 -20,4 -43,7 -65,11 -46,7 -105,22 -145,22z"/>
   <path class="fil10 str1" d="M600 3942l11900 0c118,0 214,96 214,214l0 5050c0,117 -96,214 -214,214l-11900 0c-118,0 -214,-97 -214,-214l0 -5050c0,-118 96,-214 214,-214z"/>
   <path class="fil11" d="M4019 5930c0,28 -6,49 -18,63 -13,14 -32,20 -58,20l-33 0c-29,0 -50,-6 -63,-18 -12,-12 -19,-32 -19,-60l0 -38 71 0 0 30c0,10 1,16 4,20 2,3 7,5 13,5l13 0c7,0 11,-2 14,-5 2,-4 4,-10 4,-20l0 -179 72 0 0 182zm55 80l0 -262 202 0 0 58 -130 0 0 46 126 0 0 50 -126 0 0 50 133 0 0 58 -205 0zm254 0l0 -262 202 0 0 58 -130 0 0 46 127 0 0 50 -127 0 0 50 133 0 0 58 -205 0zm390 -176c0,-33 5,-57 15,-70 10,-13 27,-20 51,-20l23 0 0 44c-10,1 -17,4 -21,10 -4,6 -6,21 -6,44l0 73c0,24 2,38 6,44 4,6 11,9 21,10l0 44 -23 0c-24,0 -41,-6 -51,-19 -10,-14 -15,-37 -15,-71l0 -89zm359 -86l105 0 0 262 -70 0 0 -193 -54 193 -72 0 -55 -195 0 195 -70 0 0 -262 105 0 55 190 56 -190zm243 163l58 0 -26 -109 -5 0 -27 109zm-103 99l77 -262 111 0 76 262 -78 0 -12 -46 -85 0 -12 46 -77 0zm300 0l0 -262 73 0 0 262 -73 0zm129 0l0 -262 108 0 83 195 0 -195 69 0 0 262 -107 0 -84 -197 0 197 -69 0zm424 -215l36 0 0 90 90 0 0 35 -90 0 0 90 -36 0 0 -90 -90 0 0 -35 90 0 0 -90zm282 116l59 0 -27 -109 -4 0 -28 109zm-103 99l78 -262 111 0 75 262 -77 0 -12 -46 -85 0 -12 46 -78 0zm298 0l0 -262 137 0c38,0 65,7 80,23 15,15 23,42 23,81l0 53c0,39 -8,66 -23,82 -15,15 -42,23 -80,23l-137 0zm72 -58l54 0c17,0 27,-3 33,-9 5,-6 7,-20 7,-42l0 -44c0,-22 -2,-36 -7,-42 -6,-6 -17,-9 -33,-9l-54 0 0 146zm188 -204l76 0 52 205 55 -205 76 0 -76 262 -109 0 -74 -262zm240 262l0 -63 59 0 0 63 -59 0zm209 -176l0 89c0,34 -5,57 -15,71 -9,13 -26,19 -50,19l-23 0 0 -44c10,-1 17,-4 21,-10 3,-5 5,-20 5,-44l0 -73c0,-24 -2,-38 -5,-44 -4,-6 -11,-9 -21,-10l0 -44 23 0c24,0 41,7 50,20 10,13 15,37 15,70zm108 -100l38 0 0 362 -38 0 0 -362zm139 276l0 -262 107 0 84 195 0 -195 68 0 0 262 -107 0 -84 -197 0 197 -68 0zm314 0l0 -262 203 0 0 58 -130 0 0 46 126 0 0 50 -126 0 0 50 132 0 0 58 -205 0zm255 0l0 -262 202 0 0 58 -130 0 0 46 126 0 0 50 -126 0 0 50 133 0 0 58 -205 0zm307 0l0 -204 -69 0 0 -58 211 0 0 58 -69 0 0 204 -73 0zm430 -153l0 44c0,22 3,36 8,42 5,6 16,9 33,9l13 0c17,0 27,-3 33,-9 5,-6 8,-20 8,-42l0 -44c0,-22 -3,-36 -8,-42 -6,-6 -16,-9 -33,-9l-13 0c-17,0 -27,3 -33,9 -5,6 -8,20 -8,42zm-73 -5c0,-40 7,-68 23,-84 15,-16 42,-24 80,-24l35 0c38,0 65,8 80,24 16,16 23,44 23,84l0 54c0,40 -7,68 -23,84 -15,16 -42,23 -80,23l-35 0c-38,0 -65,-7 -80,-23 -16,-16 -23,-44 -23,-84l0 -54zm288 158l0 -262 73 0 0 201 121 0 0 61 -194 0zm137 -262l81 0 48 101 47 -101 81 0 -93 170 0 92 -72 0 0 -92 -92 -170zm499 0l105 0 0 262 -70 0 0 -193 -54 193 -72 0 -55 -195 0 195 -70 0 0 -262 105 0 56 190 55 -190zm160 262l0 -262 126 0c36,0 61,6 77,20 15,14 23,36 23,67l0 17c0,32 -8,54 -23,68 -16,13 -41,20 -77,20l-54 0 0 70 -72 0zm72 -128l51 0c11,0 19,-2 23,-7 4,-4 6,-12 6,-24l0 -16c0,-10 -3,-18 -7,-22 -5,-4 -14,-7 -25,-7l-48 0 0 76zm197 128l0 -262 72 0 0 262 -72 0zm212 -99l59 0 -27 -109 -5 0 -27 109zm-103 99l77 -262 111 0 76 262 -78 0 -12 -46 -85 0 -12 46 -77 0zm298 0l0 -262 137 0c38,0 64,7 80,23 15,15 23,42 23,81l0 53c0,39 -8,66 -23,82 -16,15 -42,23 -80,23l-137 0zm72 -58l54 0c16,0 27,-3 32,-9 5,-6 8,-20 8,-42l0 -44c0,-22 -3,-36 -8,-42 -5,-6 -16,-9 -32,-9l-54 0 0 146zm202 -23l69 0 0 3c0,9 3,16 8,19 5,4 14,6 28,6l18 0c11,0 18,-1 23,-4 4,-3 6,-8 6,-15l0 -12c0,-6 -2,-11 -5,-13 -3,-3 -11,-5 -24,-6l-58 -7c-22,-2 -38,-9 -48,-20 -10,-11 -15,-27 -15,-49l0 -16c0,-12 2,-23 6,-33 4,-9 10,-17 17,-23 7,-6 15,-9 24,-11 9,-3 23,-4 41,-4l44 0c27,0 47,6 61,16 15,11 22,26 22,46l0 18 -70 0 0 -3c0,-8 -2,-13 -5,-16 -4,-3 -11,-5 -21,-5l-16 0c-12,0 -20,2 -24,4 -4,3 -7,7 -7,14l0 11c0,10 10,15 30,18l0 0 53 5c23,3 40,9 51,20 12,11 18,25 18,44l0 26c0,21 -7,39 -21,52 -14,13 -33,19 -56,19l-59 0c-31,0 -54,-5 -69,-15 -14,-11 -21,-28 -21,-51l0 -18zm453 81l0 -262 108 0 83 195 0 -195 69 0 0 262 -107 0 -84 -197 0 197 -69 0zm368 0l0 -204 -69 0 0 -58 211 0 0 58 -69 0 0 204 -73 0zm169 -81l69 0 0 3c0,9 2,16 8,19 5,4 14,6 27,6l18 0c11,0 19,-1 23,-4 4,-3 7,-8 7,-15l0 -12c0,-6 -2,-11 -6,-13 -3,-3 -11,-5 -23,-6l-59 -7c-22,-2 -38,-9 -48,-20 -10,-11 -15,-27 -15,-49l0 -16c0,-12 2,-23 6,-33 4,-9 10,-17 18,-23 6,-6 14,-9 23,-11 10,-3 23,-4 42,-4l43 0c27,0 48,6 62,16 14,11 21,26 21,46l0 18 -69 0 0 -3c0,-8 -2,-13 -6,-16 -4,-3 -11,-5 -20,-5l-17 0c-12,0 -19,2 -24,4 -4,3 -6,7 -6,14l0 11c0,10 10,15 29,18l0 0 53 5c23,3 41,9 52,20 11,11 17,25 17,44l0 26c0,21 -7,39 -21,52 -14,13 -32,19 -56,19l-59 0c-31,0 -54,-5 -68,-15 -14,-11 -21,-28 -21,-51l0 -18zm268 81l0 -262 202 0 0 58 -130 0 0 46 126 0 0 50 -126 0 0 50 133 0 0 58 -205 0zm-3422 -276l37 0 0 362 -37 0 0 -362zm2479 0l37 0 0 362 -37 0 0 -362z"/>
   <path class="fil12" d="M991 7498l0 -136 312 0 0 278c-60,40 -113,68 -159,83 -46,15 -100,22 -163,22 -78,0 -141,-13 -190,-40 -48,-26 -86,-65 -113,-118 -27,-52 -41,-112 -41,-180 0,-71 15,-133 45,-186 29,-52 72,-92 129,-120 44,-21 103,-31 178,-31 72,0 126,6 162,19 36,14 66,34 89,61 24,28 42,63 53,105l-194 35c-8,-25 -21,-44 -41,-57 -19,-13 -43,-20 -73,-20 -44,0 -79,15 -106,46 -26,31 -39,80 -39,146 0,71 13,121 40,151 26,31 63,46 111,46 22,0 44,-3 64,-10 21,-6 44,-18 71,-33l0 -61 -135 0zm431 -417l540 0 0 139 -337 0 0 104 313 0 0 134 -313 0 0 128 347 0 0 148 -550 0 0 -653zm661 0l188 0 245 361 0 -361 191 0 0 653 -191 0 -243 -359 0 359 -190 0 0 -653zm766 0l203 0 0 653 -203 0 0 -653zm772 0l202 0 0 389c0,38 -6,75 -18,109 -12,35 -31,64 -57,90 -25,26 -52,44 -81,54 -39,15 -86,22 -141,22 -32,0 -66,-2 -104,-7 -37,-4 -69,-13 -94,-26 -25,-13 -48,-32 -69,-56 -21,-25 -36,-50 -43,-76 -13,-41 -19,-78 -19,-110l0 -389 202 0 0 398c0,36 10,64 29,84 20,20 47,30 82,30 35,0 62,-10 82,-30 19,-20 29,-48 29,-84l0 -398zm300 437l192 -12c4,31 13,55 25,71 21,26 51,39 90,39 28,0 50,-6 66,-20 16,-13 23,-29 23,-47 0,-17 -7,-32 -22,-45 -14,-14 -49,-26 -103,-38 -88,-20 -151,-46 -189,-79 -38,-33 -57,-75 -57,-126 0,-34 10,-65 29,-95 20,-30 49,-54 88,-71 39,-17 93,-25 161,-25 83,0 147,15 190,47 44,31 70,80 79,148l-190 11c-5,-30 -16,-51 -32,-65 -16,-13 -39,-20 -67,-20 -23,0 -41,5 -53,15 -12,10 -18,22 -18,36 0,11 5,20 15,28 9,9 31,17 67,24 88,19 151,39 189,58 38,20 66,44 84,73 17,28 26,61 26,96 0,42 -12,81 -35,116 -23,36 -56,62 -97,81 -42,18 -94,27 -157,27 -111,0 -188,-21 -231,-64 -43,-43 -67,-97 -73,-163zm1001 216l0 -653 336 0c63,0 110,5 143,16 33,11 60,31 80,59 20,29 30,65 30,107 0,36 -7,67 -23,93 -15,27 -36,48 -64,65 -17,10 -41,19 -71,25 24,8 42,16 53,24 7,6 18,17 32,35 14,17 24,31 28,40l98 189 -228 0 -108 -199c-13,-26 -25,-43 -36,-50 -15,-10 -31,-16 -50,-16l-17 0 0 265 -203 0zm203 -388l85 0c9,0 27,-3 53,-9 14,-2 25,-9 33,-20 9,-11 13,-24 13,-38 0,-21 -7,-38 -20,-49 -14,-11 -39,-17 -76,-17l-88 0 0 133zm504 -265l540 0 0 139 -337 0 0 104 312 0 0 134 -312 0 0 128 347 0 0 148 -550 0 0 -653zm592 0l192 0 69 364 101 -364 190 0 102 365 69 -365 191 0 -144 653 -198 0 -115 -411 -114 411 -198 0 -145 -653zm1381 545l-229 0 -32 108 -206 0 245 -653 221 0 245 653 -211 0 -33 -108zm-43 -141l-71 -235 -71 235 142 0zm354 249l0 -653 336 0c62,0 110,5 143,16 33,11 60,31 80,59 20,29 30,65 30,107 0,36 -8,67 -23,93 -16,27 -37,48 -64,65 -17,10 -41,19 -71,25 24,8 42,16 53,24 7,6 18,17 32,35 14,17 23,31 28,40l98 189 -228 0 -108 -199c-14,-26 -26,-43 -36,-50 -15,-10 -32,-16 -50,-16l-18 0 0 265 -202 0zm202 -388l86 0c9,0 27,-3 53,-9 13,-2 24,-9 33,-20 8,-11 13,-24 13,-38 0,-21 -7,-38 -21,-49 -13,-11 -38,-17 -75,-17l-89 0 0 133zm507 -265l300 0c59,0 107,8 144,24 36,16 66,39 90,69 24,30 41,65 52,105 10,39 16,82 16,126 0,70 -8,124 -24,163 -16,38 -38,70 -66,96 -29,26 -59,44 -91,52 -45,12 -85,18 -121,18l-300 0 0 -653zm202 148l0 356 50 0c42,0 72,-4 90,-14 18,-9 32,-25 42,-49 10,-23 15,-61 15,-113 0,-69 -11,-117 -34,-142 -22,-26 -60,-38 -112,-38l-51 0zm810 -148l540 0 0 139 -338 0 0 104 313 0 0 134 -313 0 0 128 348 0 0 148 -550 0 0 -653zm614 0l222 0 116 201 113 -201 219 0 -203 316 223 337 -228 0 -128 -210 -129 210 -225 0 225 -340 -205 -313zm1156 545l-229 0 -32 108 -206 0 245 -653 221 0 245 653 -211 0 -33 -108zm-43 -141l-71 -235 -72 235 143 0zm349 -404l266 0 102 397 102 -397 265 0 0 653 -166 0 0 -498 -127 498 -150 0 -127 -498 0 498 -165 0 0 -653z"/>
   <g style="clip-path:url(#id0)">
    <image id="Cap.psd" x="11287" y="3276" width="2443" height="1358" xlink:href="Dainik Jagran Logo Vertex_curve_Images\Dainik Jagran Logo Vertex_curve_ImgID1.png"/>
   </g>
   <path class="fil10 str2" d="M291 59l13241 0c127,0 232,104 232,232l0 9341c0,128 -105,233 -232,233l-13241 0c-128,0 -232,-105 -232,-233l0 -9341c0,-128 104,-232 232,-232z"/>
  </g>
 </g>
</svg>
